<svg xmlns="http://www.w3.org/2000/svg" viewBox="0 0 136.14 136.14"><defs><linearGradient id="a" x1="5.36" y1="68.07" x2="130.78" y2="68.07" gradientUnits="userSpaceOnUse"><stop offset="0" stop-color="#fded07"/><stop offset="1" stop-color="#f8b819"/></linearGradient><linearGradient id="b" x1="58.83" y1="2339.47" x2="58.83" y2="2425.25" gradientTransform="matrix(1 0 0 -1 0 2430.61)" gradientUnits="userSpaceOnUse"><stop offset="0" stop-color="#f6f5c7"/><stop offset="1" stop-color="#f6f5c7" stop-opacity="0"/></linearGradient><radialGradient id="c" cx="104.27" cy="107.67" r="103.62" gradientTransform="rotate(-.12 -188.251 1947.86)" gradientUnits="userSpaceOnUse"><stop offset="0" stop-color="#fff0b3"/><stop offset=".74" stop-color="#fff0b3" stop-opacity="0"/></radialGradient></defs><g data-name="Layer 2"><g data-name="icons-outlines"><circle cx="68.07" cy="68.07" r="68.07" fill="#e08526"/><path d="M68.07 130.78a62.71 62.71 0 1162.71-62.71 62.8 62.8 0 01-62.71 62.71z" fill="url(#a)"/><path d="M5.43 70.82c0 .42.07.85.07 1.27a59.17 59.17 0 002.61 14.25A78 78 0 00112.3 23.63 62.7 62.7 0 005.36 68.07a19.82 19.82 0 00.07 2z" fill="url(#b)"/><path d="M97.62 33.72H81.68v42.74c0 10.72-5.08 16.79-14.39 16.79a16.83 16.83 0 01-6.21-1.06H61c-.07-.07-.14-.14-.21-.14-2.12-2.82-3.17-6.84-3.17-11.85V37.46l-4.72-3.74H37v44c0 10.79 4.09 19.89 11.78 25.32l2.75 2.19c.07.07 1.2.92 1.2.92 4.9 3.75 11.27 5.93 19.27 5.93 19.61 0 30.33-13.12 30.33-30.61v-44z" fill="#ab5526"/><path d="M97.62 33.72v44c0 17.49-10.72 30.61-30.33 30.61S37 95.23 37 77.73v-44h15.9v42.73c0 10.72 5 16.79 14.39 16.79s14.39-6.07 14.39-16.79V33.72z" fill="#e08526" data-name="UBISOFT"/><path d="M68.14 121.68A53.57 53.57 0 11121.61 68a53.57 53.57 0 01-53.47 53.68zm-.28-102.56a48.85 48.85 0 1049 48.74 48.89 48.89 0 00-49-48.74z" fill="#e08526" opacity=".6" style="isolation:isolate"/><path d="M68.14 121.68A53.57 53.57 0 11121.61 68a53.57 53.57 0 01-53.47 53.68zm-.28-102.56a48.85 48.85 0 1049 48.74 48.89 48.89 0 00-49-48.74z" fill="url(#c)"/></g></g></svg>